# xmcd
#
# Track frame offsets: 
#        150
#        13812
#        27690
#        40582
#        53785
#        67180
#        84150
#        95770
#        107345
#        120620
#        133627
#        144102
#        155552
#        166157
#        178110
#        190505
#        201102
#        211762
#        223180
#        233195
#        241492
#        251570
#        261717
#        271865
#
# Disc length: 3975 seconds
#
# Revision: 2
# Processed by: cddbd v1.5.1PL2 Copyright (c) Steve Scherf et al.
# Submitted via: ExactAudioCopy v0.95b2
#
DISCID=580f8518
DTITLE=Various Artist - Specialty Sampler
DYEAR=1990
DGENRE=R&B
TTITLE0=Roy Milton - R.M. Blues
TTITLE1=Joe Liggins - Pink Champagne
TTITLE2=Percy Mayfield - Strange Things Happening
TTITLE3=Paul Gayten - Yeah Yeah Yeah
TTITLE4=Annie Laurie - Baby What's New
TTITLE5=Little Jimmy Scott - When Your Lover Has Gone
TTITLE6=Lloyd Price - Lawdy Miss Clawdy
TTITLE7=Jimmy Liggins - Drunk
TTITLE8=Pee Wee Crayton - The Darkest Hour
TTITLE9=Floyd Dixon - Hole In The Wall
TTITLE10=Grady Chapman - I Need You So
TTITLE11=Joe Houston - Flying Home
TTITLE12=Marvin and Johnny - Day In - Day Out
TTITLE13=The Turks - It Can't Be True
TTITLE14=Clifton Chenier - Ay-Tete Fe
TTITLE15=Jesse Belvin - Where's My Girl?
TTITLE16=Chuck Higgins - Pachuko Hop
TTITLE17=Guitar Slim - Sufferin Mind
TTITLE18=Professor Longhair - No Buts, No Maybes
TTITLE19=Little Richard - Oh My Soul
TTITLE20=Larry Williams - Dizzy Miss Lizzy
TTITLE21=Sam Cooke - I'll Come Running Back To You
TTITLE22=Don and Dewey - Koko Joe
TTITLE23=Lee Morgan and Wynton Kelly - Whisper Not
EXTD=
EXTT0=
EXTT1=
EXTT2=
EXTT3=
EXTT4=
EXTT5=
EXTT6=
EXTT7=
EXTT8=
EXTT9=
EXTT10=
EXTT11=
EXTT12=
EXTT13=
EXTT14=
EXTT15=
EXTT16=
EXTT17=
EXTT18=
EXTT19=
EXTT20=
EXTT21=
EXTT22=
EXTT23=
PLAYORDER=
